<?xml version="1.0" encoding="UTF-8" standalone="no"?>
<!-- Created with Inkscape (http://www.inkscape.org/) -->

<svg
   xmlns:dc="http://purl.org/dc/elements/1.1/"
   xmlns:cc="http://creativecommons.org/ns#"
   xmlns:rdf="http://www.w3.org/1999/02/22-rdf-syntax-ns#"
   xmlns:svg="http://www.w3.org/2000/svg"
   xmlns="http://www.w3.org/2000/svg"
   xmlns:sodipodi="http://sodipodi.sourceforge.net/DTD/sodipodi-0.dtd"
   xmlns:inkscape="http://www.inkscape.org/namespaces/inkscape"
   width="1512.6409mm"
   height="924.01233mm"
   viewBox="0 0 1512.6409 924.01233"
   version="1.1"
   id="svg1679"
   sodipodi:docname="academics-final.svg"
   inkscape:version="0.92.2 (5c3e80d, 2017-08-06)">
  <defs
     id="defs1673" />
  <sodipodi:namedview
     id="base"
     pagecolor="#ffffff"
     bordercolor="#666666"
     borderopacity="1.0"
     inkscape:pageopacity="0.0"
     inkscape:pageshadow="2"
     inkscape:zoom="0.0875"
     inkscape:cx="3109.5922"
     inkscape:cy="1249.4119"
     inkscape:document-units="mm"
     inkscape:current-layer="layer1"
     showgrid="false"
     fit-margin-top="0"
     fit-margin-left="0"
     fit-margin-right="0"
     fit-margin-bottom="0"
     inkscape:window-width="1920"
     inkscape:window-height="1001"
     inkscape:window-x="-9"
     inkscape:window-y="-9"
     inkscape:window-maximized="1"
     inkscape:snap-global="false" />
  <metadata
     id="metadata1676">
    <rdf:RDF>
      <cc:Work
         rdf:about="">
        <dc:format>image/svg+xml</dc:format>
        <dc:type
           rdf:resource="http://purl.org/dc/dcmitype/StillImage" />
        <dc:title></dc:title>
      </cc:Work>
    </rdf:RDF>
  </metadata>
  <g
     inkscape:label="Layer 1"
     inkscape:groupmode="layer"
     id="layer1"
     transform="translate(473.27514,-115.57144)">
    <rect
       style="opacity:1;fill:#ce0f3e;fill-opacity:1;stroke:#ce0f3e;stroke-width:14.25939369;stroke-linecap:round;stroke-linejoin:bevel;stroke-miterlimit:4;stroke-dasharray:none;stroke-dashoffset:0;stroke-opacity:1;paint-order:normal"
       id="rect1624-4"
       width="742.12146"
       height="909.75293"
       x="-466.14545"
       y="122.70113"
       inkscape:export-xdpi="114.45405"
       inkscape:export-ydpi="114.45405" />
    <g
       id="g1618"
       transform="translate(144.49149,14.611108)"
       inkscape:export-xdpi="114.45405"
       inkscape:export-ydpi="114.45405"
       style="fill:#ffffff;fill-opacity:1;stroke:#ffffff;stroke-width:10;stroke-linecap:butt;stroke-linejoin:round;stroke-miterlimit:4;stroke-dasharray:none;stroke-opacity:1">
      <rect
         transform="matrix(-1.9911654e-7,1,-0.8660255,-0.49999983,0,0)"
         style="opacity:1;fill:#ffffff;fill-opacity:1;stroke:#ffffff;stroke-width:10.7456981;stroke-linecap:butt;stroke-linejoin:round;stroke-miterlimit:4;stroke-dasharray:none;stroke-dashoffset:0;stroke-opacity:1;paint-order:normal"
         id="rect832"
         width="156.95462"
         height="151.20662"
         x="585.2467"
         y="327.85757"
         ry="0" />
      <rect
         transform="matrix(0.8660255,0.49999983,-0.8660254,0.5,0,0)"
         style="opacity:1;fill:#ffffff;fill-opacity:1;stroke:#ffffff;stroke-width:10.74569994;stroke-linecap:butt;stroke-linejoin:round;stroke-miterlimit:4;stroke-dasharray:none;stroke-dashoffset:0;stroke-opacity:1;paint-order:normal"
         id="rect832-5"
         width="156.95462"
         height="151.20667"
         x="77.838028"
         y="393.32297"
         ry="0" />
      <rect
         transform="matrix(-1.9911654e-7,1,-0.8660254,0.5,0,0)"
         style="opacity:1;fill:#ffffff;fill-opacity:1;stroke:#ffffff;stroke-width:10.74569996;stroke-linecap:butt;stroke-linejoin:round;stroke-miterlimit:4;stroke-dasharray:none;stroke-dashoffset:0;stroke-opacity:1;paint-order:normal"
         id="rect832-6"
         width="156.95462"
         height="151.20667"
         x="489.92703"
         y="327.67569"
         ry="0" />
      <rect
         transform="matrix(0.8660255,0.49999983,-0.8660254,0.5,0,0)"
         style="opacity:1;fill:#ffffff;fill-opacity:1;stroke:#ffffff;stroke-width:10.74569994;stroke-linecap:butt;stroke-linejoin:round;stroke-miterlimit:4;stroke-dasharray:none;stroke-dashoffset:0;stroke-opacity:1;paint-order:normal"
         id="rect832-5-0"
         width="156.95462"
         height="151.20667"
         x="292.802"
         y="782.05518"
         ry="0" />
      <rect
         transform="matrix(-1.9911654e-7,1,-0.8660255,-0.49999983,0,0)"
         style="opacity:1;fill:#ffffff;fill-opacity:1;stroke:#ffffff;stroke-width:10.7456981;stroke-linecap:butt;stroke-linejoin:round;stroke-miterlimit:4;stroke-dasharray:none;stroke-dashoffset:0;stroke-opacity:1;paint-order:normal"
         id="rect832-7"
         width="156.95462"
         height="151.20662"
         x="414.9996"
         y="-12.636741"
         ry="0" />
      <rect
         transform="matrix(0.8660255,0.49999983,-0.8660254,0.5,0,0)"
         style="opacity:1;fill:#ffffff;fill-opacity:1;stroke:#ffffff;stroke-width:10.74569994;stroke-linecap:butt;stroke-linejoin:round;stroke-miterlimit:4;stroke-dasharray:none;stroke-dashoffset:0;stroke-opacity:1;paint-order:normal"
         id="rect832-5-0-7"
         width="156.95462"
         height="151.20667"
         x="464.18033"
         y="610.67688"
         ry="0" />
      <rect
         transform="matrix(-1.9911654e-7,1,-0.8660254,0.5,0,0)"
         style="opacity:1;fill:#ffffff;fill-opacity:1;stroke:#ffffff;stroke-width:10.74569996;stroke-linecap:butt;stroke-linejoin:round;stroke-miterlimit:4;stroke-dasharray:none;stroke-dashoffset:0;stroke-opacity:1;paint-order:normal"
         id="rect832-6-7-8"
         width="156.95462"
         height="151.20667"
         x="660.69434"
         y="-13.858876"
         ry="0" />
    </g>
    <g
       aria-label="aca
dem
ics"
       style="font-style:normal;font-variant:normal;font-weight:bold;font-stretch:normal;font-size:281.45214844px;line-height:10.00000015%;font-family:'IBM Plex Serif';-inkscape-font-specification:'IBM Plex Serif Bold';text-align:center;letter-spacing:0px;word-spacing:0px;text-anchor:middle;fill:#ce0f3e;fill-opacity:1;stroke:none;stroke-width:1.46589637px;stroke-linecap:butt;stroke-linejoin:miter;stroke-opacity:1"
       id="text1189-0"
       transform="matrix(0.91483972,0,0,0.91483972,56.333217,49.044872)">
      <path
         d="m 518.70889,368.74011 q -1.37428,-2.74855 -2.33628,-6.32168 -0.96199,-3.57312 -1.64913,-7.55853 -3.16084,3.4357 -7.28367,6.45911 -4.12284,3.02341 -9.20767,5.35969 -4.9474,2.19884 -10.99422,3.43569 -6.04683,1.37428 -13.05564,1.37428 -11.40651,0 -21.02646,-3.29827 -9.48252,-3.29827 -16.35391,-9.20766 -6.87139,-5.9094 -10.71937,-14.01764 -3.84797,-8.24567 -3.84797,-17.86561 0,-23.50016 17.45333,-36.28094 17.59076,-12.91822 52.35999,-12.91822 h 21.30131 v -8.79538 q 0,-10.71937 -7.00882,-16.90362 -7.00882,-6.32168 -20.20188,-6.32168 -11.68137,0 -17.04105,5.08483 -5.35969,4.9474 -5.35969,13.3305 h -38.20493 q 0,-9.48252 4.12284,-18.00304 4.26026,-8.52053 12.23107,-14.97963 8.10824,-6.45911 19.65218,-10.16966 11.68136,-3.84798 26.66099,-3.84798 13.46793,0 25.01186,3.29827 11.68137,3.29826 20.20189,9.75737 8.52053,6.45911 13.3305,16.35391 4.80997,9.75737 4.80997,22.67559 v 63.7665 q 0,11.95622 1.51171,19.7896 1.5117,7.83339 4.39769,13.46793 v 2.33627 z m -36.41837,-26.79842 q 5.77196,0 10.71937,-1.37428 4.9474,-1.37428 8.9328,-3.57312 3.98541,-2.19885 6.87139,-4.9474 2.88599,-2.88599 4.53512,-5.77197 v -25.56157 h -19.51475 q -8.9328,0 -15.25448,1.78656 -6.32168,1.64913 -10.30709,4.80997 -3.98541,3.02341 -5.9094,7.4211 -1.92398,4.26027 -1.92398,9.3451 0,7.69595 5.35968,12.78078 5.49711,5.08483 16.49134,5.08483 z"
         style="font-style:normal;font-variant:normal;font-weight:bold;font-stretch:normal;line-height:100%;font-family:'Roboto Mono';-inkscape-font-specification:'Roboto Mono Bold';fill:#ce0f3e;fill-opacity:1;stroke:none;stroke-width:1.46589637px;stroke-opacity:1"
         id="path1430"
         inkscape:connector-curvature="0" />
      <path
         d="m 660.39696,340.9797 q 5.63454,0 10.71937,-1.64914 5.08483,-1.64913 8.93281,-4.67254 3.84798,-3.02342 5.90939,-7.28368 2.19885,-4.26026 1.92399,-9.48252 h 36.00609 q 0.27485,11.54394 -4.80998,21.43874 -4.9474,9.8948 -13.60535,17.04105 -8.65795,7.14625 -20.20189,11.26908 -11.4065,3.98541 -24.18729,3.98541 -17.3159,0 -30.37155,-5.77197 -13.05564,-5.9094 -21.85102,-16.07906 -8.65795,-10.16965 -13.19307,-23.77501 -4.39769,-13.74278 -4.39769,-29.40955 v -4.12283 q 0,-15.66677 4.39769,-29.27212 4.39769,-13.74278 13.19307,-23.91244 8.79538,-10.16966 21.7136,-16.07906 13.05564,-5.90939 30.23411,-5.90939 13.74278,0 25.42415,4.12283 11.68136,4.12284 20.06446,11.68137 8.52052,7.4211 13.19307,18.14047 4.67254,10.58194 4.39769,23.77501 h -36.00609 q 0.27486,-5.49711 -1.64913,-10.44452 -1.92399,-4.9474 -5.63454,-8.52052 -3.71055,-3.57312 -8.93281,-5.63454 -5.22226,-2.19884 -11.40651,-2.19884 -9.07023,0 -14.97963,3.71055 -5.90939,3.71055 -9.48252,9.8948 -3.43569,6.18425 -4.9474,14.15506 -1.37428,7.97082 -1.37428,16.49134 v 4.12283 q 0,8.65796 1.37428,16.7662 1.37428,7.97081 4.80998,14.15506 3.57312,6.04682 9.48251,9.75737 6.04683,3.71056 15.25449,3.71056 z"
         style="font-style:normal;font-variant:normal;font-weight:bold;font-stretch:normal;line-height:100%;font-family:'Roboto Mono';-inkscape-font-specification:'Roboto Mono Bold';fill:#ce0f3e;fill-opacity:1;stroke:none;stroke-width:1.46589637px;stroke-opacity:1"
         id="path1432"
         inkscape:connector-curvature="0" />
      <path
         d="m 856.23159,368.74011 q -1.37428,-2.74855 -2.33627,-6.32168 -0.962,-3.57312 -1.64914,-7.55853 -3.16084,3.4357 -7.28367,6.45911 -4.12283,3.02341 -9.20766,5.35969 -4.9474,2.19884 -10.99423,3.43569 -6.04682,1.37428 -13.05564,1.37428 -11.40651,0 -21.02645,-3.29827 -9.48252,-3.29827 -16.35391,-9.20766 -6.87139,-5.9094 -10.71937,-14.01764 -3.84798,-8.24567 -3.84798,-17.86561 0,-23.50016 17.45333,-36.28094 17.59076,-12.91822 52.36,-12.91822 h 21.30131 v -8.79538 q 0,-10.71937 -7.00882,-16.90362 -7.00882,-6.32168 -20.20189,-6.32168 -11.68136,0 -17.04105,5.08483 -5.35968,4.9474 -5.35968,13.3305 h -38.20493 q 0,-9.48252 4.12283,-18.00304 4.26026,-8.52053 12.23108,-14.97963 8.10824,-6.45911 19.65217,-10.16966 11.68137,-3.84798 26.661,-3.84798 13.46792,0 25.01186,3.29827 11.68136,3.29826 20.20189,9.75737 8.52052,6.45911 13.33049,16.35391 4.80998,9.75737 4.80998,22.67559 v 63.7665 q 0,11.95622 1.5117,19.7896 1.51171,7.83339 4.39769,13.46793 v 2.33627 z m -36.41837,-26.79842 q 5.77197,0 10.71937,-1.37428 4.9474,-1.37428 8.93281,-3.57312 3.9854,-2.19885 6.87139,-4.9474 2.88598,-2.88599 4.53512,-5.77197 v -25.56157 h -19.51475 q -8.93281,0 -15.25449,1.78656 -6.32168,1.64913 -10.30708,4.80997 -3.98541,3.02341 -5.9094,7.4211 -1.92399,4.26027 -1.92399,9.3451 0,7.69595 5.35969,12.78078 5.49711,5.08483 16.49133,5.08483 z"
         style="font-style:normal;font-variant:normal;font-weight:bold;font-stretch:normal;line-height:100%;font-family:'Roboto Mono';-inkscape-font-specification:'Roboto Mono Bold';fill:#ce0f3e;fill-opacity:1;stroke:none;stroke-width:1.46589637px;stroke-opacity:1"
         id="path1434"
         inkscape:connector-curvature="0" />
      <path
         d="m 421.82228,574.74439 q 0,-16.90362 3.84798,-30.92125 3.98541,-14.01764 11.54394,-24.04987 7.55853,-10.03223 18.27789,-15.52934 10.8568,-5.49711 24.73701,-5.49711 11.68136,0 20.47674,4.26026 8.93281,4.12283 15.8042,11.81879 v -75.72272 h 38.34236 v 211.08911 h -34.49438 l -1.92399,-15.52934 q -7.00882,8.65795 -16.49134,13.46792 -9.48252,4.80998 -21.98845,4.80998 -13.60535,0 -24.46215,-5.63454 -10.71936,-5.77197 -18.27789,-15.8042 -7.42111,-10.03223 -11.40651,-23.77501 -3.98541,-13.88021 -3.98541,-30.09669 z m 38.20493,2.88599 q 0,9.34509 1.51171,17.45333 1.64913,7.97081 5.22225,14.01764 3.57313,5.90939 9.20767,9.34509 5.63454,3.43569 13.74278,3.43569 9.8948,0 16.35391,-4.26026 6.59653,-4.26026 10.44451,-11.68136 v -60.19338 q -3.84798,-7.55853 -10.30708,-11.68137 -6.45911,-4.26026 -16.21649,-4.26026 -8.10824,0 -13.8802,3.57312 -5.63454,3.4357 -9.20767,9.61995 -3.57312,6.04682 -5.22225,14.29249 -1.64914,8.10824 -1.64914,17.45333 z"
         style="font-style:normal;font-variant:normal;font-weight:bold;font-stretch:normal;line-height:100%;font-family:'Roboto Mono';-inkscape-font-specification:'Roboto Mono Bold';fill:#ce0f3e;fill-opacity:1;stroke:none;stroke-width:1.46589637px;stroke-opacity:1"
         id="path1436"
         inkscape:connector-curvature="0" />
      <path
         d="m 666.71864,652.94082 q -17.17848,0 -31.19611,-5.63454 -14.01764,-5.63454 -24.04987,-15.25449 -10.03223,-9.75737 -15.52934,-22.81302 -5.35969,-13.19307 -5.35969,-28.1727 v -5.49711 q 0,-17.04105 5.35969,-31.05868 5.35968,-14.15507 14.97963,-24.32472 9.61995,-10.16966 22.81302,-15.8042 13.19307,-5.63454 28.72241,-5.63454 16.07905,0 28.58498,5.35968 12.64336,5.22226 21.30131,14.84221 8.79538,9.61994 13.3305,23.22529 4.53512,13.46793 4.53512,29.82184 v 16.21648 H 629.33828 q 1.09942,7.55853 4.39769,13.88021 3.43569,6.18425 8.65795,10.71937 5.22225,4.53511 11.95622,7.00882 6.73396,2.4737 14.70477,2.4737 5.63454,0 11.13165,-1.09943 5.63454,-1.09942 10.71937,-3.16084 5.08483,-2.19884 9.48252,-5.35968 4.39769,-3.16084 7.69596,-7.4211 l 19.10246,20.61417 q -3.57312,5.08483 -9.34509,10.03223 -5.63454,4.80997 -13.46792,8.65795 -7.69596,3.71055 -17.17848,6.04682 -9.48252,2.33628 -20.47674,2.33628 z m -4.53512,-123.27275 q -6.45911,0 -11.81879,2.33628 -5.35968,2.19884 -9.48252,6.4591 -3.9854,4.26027 -6.73396,10.16966 -2.74856,5.9094 -4.12284,13.19307 h 62.66708 v -3.02341 q -0.27485,-6.04682 -2.33627,-11.40651 -2.06141,-5.35968 -5.90939,-9.20766 -3.84798,-3.98541 -9.48252,-6.18425 -5.49711,-2.33628 -12.78079,-2.33628 z"
         style="font-style:normal;font-variant:normal;font-weight:bold;font-stretch:normal;line-height:100%;font-family:'Roboto Mono';-inkscape-font-specification:'Roboto Mono Bold';fill:#ce0f3e;fill-opacity:1;stroke:none;stroke-width:1.46589637px;stroke-opacity:1"
         id="path1438"
         inkscape:connector-curvature="0" />
      <path
         d="m 787.1054,501.49537 1.09943,18.00305 q 4.26026,-9.61995 11.68136,-15.11706 7.55853,-5.63454 18.2779,-5.63454 18.00304,0 23.50015,15.8042 4.39769,-7.42111 11.13166,-11.54394 6.87139,-4.26026 16.49133,-4.26026 6.73396,0 12.50593,2.4737 5.9094,2.4737 10.16966,7.97081 4.39769,5.35969 6.73396,14.01764 2.4737,8.52052 2.4737,20.88902 V 650.19226 H 866.40125 V 543.96057 q 0,-4.26027 -0.962,-7.00882 -0.82456,-2.74856 -2.33627,-4.26026 -1.5117,-1.64914 -3.57312,-2.19885 -1.92399,-0.68714 -3.98541,-0.68714 -3.9854,0 -6.73396,1.92399 -2.74856,1.78656 -4.26026,4.9474 V 650.19226 H 810.88041 V 543.82314 q 0,-4.26026 -0.82456,-7.00882 -0.82457,-2.74856 -2.33628,-4.26026 -1.37427,-1.51171 -3.29826,-2.06142 -1.92399,-0.68714 -4.12284,-0.68714 -4.39769,0 -7.14624,2.4737 -2.61113,2.4737 -4.12284,6.59654 V 650.19226 H 754.26016 V 501.49537 Z"
         style="font-style:normal;font-variant:normal;font-weight:bold;font-stretch:normal;line-height:100%;font-family:'Roboto Mono';-inkscape-font-specification:'Roboto Mono Bold';fill:#ce0f3e;fill-opacity:1;stroke:none;stroke-width:1.46589637px;stroke-opacity:1"
         id="path1440"
         inkscape:connector-curvature="0" />
      <path
         d="m 435.97735,782.94752 h 80.94497 v 117.6382 h 40.26635 v 31.05869 H 435.97735 v -31.05869 h 42.32776 v -86.44209 h -42.32776 z m 39.5792,-38.0675 q 0,-4.39769 1.51171,-8.10824 1.64913,-3.84798 4.53512,-6.45911 2.88598,-2.74855 6.87139,-4.26026 4.12283,-1.51171 9.07023,-1.51171 10.16966,0 16.07906,5.77197 6.04682,5.63454 6.04682,14.56735 0,8.93281 -6.04682,14.70477 -5.9094,5.63455 -16.07906,5.63455 -4.9474,0 -9.07023,-1.51171 -3.98541,-1.51171 -6.87139,-4.12284 -2.88599,-2.74855 -4.53512,-6.4591 -1.51171,-3.84798 -1.51171,-8.24567 z"
         style="font-style:normal;font-variant:normal;font-weight:bold;font-stretch:normal;line-height:100%;font-family:'Roboto Mono';-inkscape-font-specification:'Roboto Mono Bold';fill:#ce0f3e;fill-opacity:1;stroke:none;stroke-width:1.46589637px;stroke-opacity:1"
         id="path1442"
         inkscape:connector-curvature="0" />
      <path
         d="m 660.39696,903.88399 q 5.63454,0 10.71937,-1.64913 5.08483,-1.64914 8.93281,-4.67255 3.84798,-3.02341 5.90939,-7.28367 2.19885,-4.26026 1.92399,-9.48252 h 36.00609 q 0.27485,11.54394 -4.80998,21.43874 -4.9474,9.8948 -13.60535,17.04105 -8.65795,7.14624 -20.20189,11.26908 -11.4065,3.9854 -24.18729,3.9854 -17.3159,0 -30.37155,-5.77196 -13.05564,-5.9094 -21.85102,-16.07906 -8.65795,-10.16966 -13.19307,-23.77501 -4.39769,-13.74278 -4.39769,-29.40955 v -4.12283 q 0,-15.66677 4.39769,-29.27213 4.39769,-13.74278 13.19307,-23.91243 8.79538,-10.16966 21.7136,-16.07906 13.05564,-5.90939 30.23411,-5.90939 13.74278,0 25.42415,4.12283 11.68136,4.12283 20.06446,11.68136 8.52052,7.42111 13.19307,18.14047 4.67254,10.58195 4.39769,23.77501 h -36.00609 q 0.27486,-5.49711 -1.64913,-10.44451 -1.92399,-4.9474 -5.63454,-8.52052 -3.71055,-3.57313 -8.93281,-5.63454 -5.22226,-2.19885 -11.40651,-2.19885 -9.07023,0 -14.97963,3.71055 -5.90939,3.71055 -9.48252,9.89481 -3.43569,6.18425 -4.9474,14.15506 -1.37428,7.97081 -1.37428,16.49134 v 4.12283 q 0,8.65795 1.37428,16.76619 1.37428,7.97082 4.80998,14.15507 3.57312,6.04682 9.48251,9.75737 6.04683,3.71055 15.25449,3.71055 z"
         style="font-style:normal;font-variant:normal;font-weight:bold;font-stretch:normal;line-height:100%;font-family:'Roboto Mono';-inkscape-font-specification:'Roboto Mono Bold';fill:#ce0f3e;fill-opacity:1;stroke:none;stroke-width:1.46589637px;stroke-opacity:1"
         id="path1444"
         inkscape:connector-curvature="0" />
      <path
         d="m 859.255,890.82835 q 0,-3.43569 -1.64913,-6.04682 -1.51171,-2.61113 -5.63454,-4.80998 -3.98541,-2.33627 -10.71937,-4.26026 -6.73396,-1.92399 -17.04105,-3.84798 -13.05564,-2.61113 -23.91244,-6.4591 -10.71937,-3.98541 -18.41532,-9.48252 -7.69596,-5.63454 -12.09365,-12.91822 -4.26026,-7.28367 -4.26026,-16.76619 0,-9.20766 4.39769,-17.59076 4.39769,-8.38309 12.64336,-14.70477 8.24566,-6.32168 20.06446,-10.03223 11.81879,-3.71055 26.66099,-3.71055 15.52934,0 27.89785,3.71055 12.3685,3.57312 20.88902,10.03223 8.65795,6.32168 13.19307,15.11706 4.53512,8.79538 4.53512,19.10246 h -38.20493 q 0,-8.65795 -7.00882,-14.42992 -7.00882,-5.90939 -21.30131,-5.90939 -13.3305,0 -20.20189,4.80997 -6.73396,4.80997 -6.73396,11.81879 0,3.29827 1.37428,6.18425 1.37428,2.74856 4.80997,5.08483 3.57312,2.19884 9.61995,4.12283 6.04682,1.78657 15.39191,3.16084 13.46793,2.19885 25.01186,5.63454 11.54394,3.4357 19.92704,8.93281 8.38309,5.35969 13.05564,13.19307 4.80997,7.69596 4.80997,18.41533 0,9.8948 -4.80997,18.2779 -4.67255,8.24566 -13.46793,14.29249 -8.65795,6.04682 -21.02645,9.48252 -12.36851,3.29826 -27.62299,3.29826 -16.76619,0 -29.68441,-4.39769 -12.78078,-4.39769 -21.43874,-11.4065 -8.65795,-7.14625 -13.19307,-16.07906 -4.39769,-9.07023 -4.39769,-18.14047 h 36.41837 q 0.41229,6.04682 3.29827,10.44451 2.88599,4.26027 7.4211,7.00882 4.53512,2.61113 10.30709,3.84798 5.90939,1.23685 12.09365,1.23685 14.15506,0 21.57616,-4.53512 7.4211,-4.53511 7.4211,-11.68136 z"
         style="font-style:normal;font-variant:normal;font-weight:bold;font-stretch:normal;line-height:100%;font-family:'Roboto Mono';-inkscape-font-specification:'Roboto Mono Bold';fill:#ce0f3e;fill-opacity:1;stroke:none;stroke-width:1.46589637px;stroke-opacity:1"
         id="path1446"
         inkscape:connector-curvature="0" />
    </g>
  </g>
</svg>
