<?xml version="1.0" encoding="UTF-8" standalone="no"?>
<!-- Created with Inkscape (http://www.inkscape.org/) -->

<svg
   xmlns:dc="http://purl.org/dc/elements/1.1/"
   xmlns:cc="http://creativecommons.org/ns#"
   xmlns:rdf="http://www.w3.org/1999/02/22-rdf-syntax-ns#"
   xmlns:svg="http://www.w3.org/2000/svg"
   xmlns="http://www.w3.org/2000/svg"
   xmlns:sodipodi="http://sodipodi.sourceforge.net/DTD/sodipodi-0.dtd"
   xmlns:inkscape="http://www.inkscape.org/namespaces/inkscape"
   id="svg3378"
   version="1.1"
   inkscape:version="0.91 r13725"
   width="3750"
   height="984.375"
   viewBox="0 0 3750 984.375"
   sodipodi:docname="LOL Logo BW.svg">
  <metadata
     id="metadata3384">
    <rdf:RDF>
      <cc:Work
         rdf:about="">
        <dc:format>image/svg+xml</dc:format>
        <dc:type
           rdf:resource="http://purl.org/dc/dcmitype/StillImage" />
        <dc:title></dc:title>
      </cc:Work>
    </rdf:RDF>
  </metadata>
  <defs
     id="defs3382" />
  <sodipodi:namedview
     pagecolor="#ffffff"
     bordercolor="#666666"
     borderopacity="1"
     objecttolerance="10"
     gridtolerance="10"
     guidetolerance="10"
     inkscape:pageopacity="0"
     inkscape:pageshadow="2"
     inkscape:window-width="686"
     inkscape:window-height="405"
     id="namedview3380"
     showgrid="false"
     inkscape:zoom="0.0768"
     inkscape:cx="2019.38"
     inkscape:cy="-549.47917"
     inkscape:window-x="1285"
     inkscape:window-y="165"
     inkscape:window-maximized="0"
     inkscape:current-layer="svg3378" />
  <path
     style="fill:#d3d3d3;fill-opacity:1"
     d="m 766.77398,968.86296 c -32.00652,-2.85449 -58.01222,-9.51409 -82.36459,-21.09212 -20.87781,-9.92615 -35.33596,-20.22664 -50.52253,-35.99388 -33.40737,-34.68465 -51.99301,-81.0942 -57.32269,-143.13786 -0.67058,-7.8066 -1.03306,-96.16116 -1.03983,-253.43192 l -0.0105,-241.44695 72.88345,0 72.88345,0 0.35286,245.44194 c 0.26328,183.07946 0.65192,246.96453 1.52978,251.43445 6.19528,31.54636 16.75068,47.84349 37.13295,57.33181 10.47991,4.87854 17.145,6.2298 33.44361,6.78017 12.5152,0.4226 16.57809,0.17506 24.68273,-1.50385 13.11935,-2.71776 23.12046,-7.66814 31.53973,-15.61168 8.22891,-7.76396 13.3042,-16.12588 17.25901,-28.43591 6.21019,-19.33055 5.90647,-5.35947 5.91297,-271.99248 l 0.009,-243.44445 69.41291,0 69.41281,0 -0.01,237.45195 c -0.011,151.46342 -0.3794,242.69631 -1.0304,251.93382 -4.1419,58.77466 -20.48566,104.98548 -49.47565,139.88807 -29.14764,35.09244 -72.19135,56.85627 -127.26087,64.34588 -13.71645,1.86544 -53.35066,2.73726 -67.4154,1.48301 z m 2189.25232,0 c -32.0065,-2.85449 -58.0123,-9.51409 -82.3646,-21.09212 -20.8778,-9.92615 -35.3359,-20.22664 -50.5226,-35.99388 -33.4072,-34.68465 -51.9929,-81.0942 -57.3226,-143.13786 -0.6706,-7.8066 -1.0332,-96.16116 -1.0399,-253.43192 l -0.01,-241.44695 72.8835,0 72.8835,0 0.3529,245.44194 c 0.2633,183.07946 0.6519,246.96453 1.5297,251.43445 6.1953,31.54636 16.7508,47.84349 37.133,57.33181 10.48,4.87854 17.1449,6.2298 33.4435,6.78017 12.5154,0.4226 16.5782,0.17506 24.6828,-1.50385 13.1195,-2.71776 23.1205,-7.66814 31.5397,-15.61168 8.229,-7.76396 13.3042,-16.12588 17.259,-28.43591 6.2104,-19.33055 5.9066,-5.35947 5.9131,-271.99248 l 0.01,-243.44445 69.4129,0 69.4129,0 -0.01,237.45195 c -0.01,151.46342 -0.3793,242.69631 -1.0303,251.93382 -4.1419,58.77466 -20.4857,104.98548 -49.4758,139.88807 -29.1477,35.09244 -72.1913,56.85627 -127.2608,64.34588 -13.7165,1.86544 -53.3507,2.73726 -67.4155,1.48301 z M 243.22517,967.88573 C 169.77206,962.79196 115.3972,934.59571 81.445166,883.99434 58.886031,850.3728 46.371938,808.35884 43.21857,755.65541 c -1.344292,-22.46878 -1.344292,-257.18024 0,-279.64905 2.49504,-41.70052 10.117975,-74.16222 24.444348,-104.09428 29.266046,-61.14546 80.983982,-96.26069 157.291122,-106.79678 17.54554,-2.42256 62.35414,-2.42256 79.89976,0 51.4391,7.10243 90.11621,24.65565 120.64024,54.75133 15.73336,15.51253 26.49667,30.81102 36.67925,52.13385 14.43663,30.23102 22.26647,63.94897 24.46722,105.36454 1.25552,23.6267 1.21426,254.4586 -0.0495,277.29164 -6.99645,126.40542 -71.93512,199.6043 -188.22916,212.17165 -13.61936,1.47186 -41.46122,2.00573 -55.13676,1.05742 z m 46.14804,-135.32442 c 11.73844,-3.23321 20.40625,-8.2131 28.50824,-16.37861 8.46291,-8.52934 13.2061,-16.69775 17.32015,-29.82706 5.5666,-17.76519 5.60704,-18.99345 5.60704,-170.11589 0,-92.15979 -0.36,-142.04247 -1.07113,-148.42003 -4.56291,-40.92003 -22.99574,-63.89609 -56.35679,-70.24712 -8.9783,-1.70923 -27.9753,-1.70923 -36.9536,0 -33.36105,6.35103 -51.79396,29.32709 -56.35678,70.24712 -1.40799,12.62683 -1.4509,281.8652 -0.0466,295.32628 3.70472,35.52407 18.93649,58.51445 44.70464,67.47573 3.82066,1.3287 9.36429,2.84565 12.31918,3.37098 8.15699,1.4502 35.18239,0.53625 42.32609,-1.4314 z M 2432.4774,967.88573 c -73.453,-5.09377 -127.8278,-33.29002 -161.78,-83.89139 -22.5592,-33.62154 -35.0732,-75.6355 -38.2264,-128.33893 -0.5911,-9.87957 -1.0159,-68.34292 -1.0159,-139.82451 0,-71.48158 0.4248,-129.94495 1.0159,-139.82454 2.4949,-41.70052 10.1179,-74.16222 24.4442,-104.09428 29.2662,-61.14546 80.9841,-96.26069 157.2912,-106.79678 17.5455,-2.42256 62.3541,-2.42256 79.8997,0 76.2146,10.52328 128.1545,45.8121 157.3196,106.88518 14.4366,30.23102 22.2664,63.94897 24.4671,105.36454 1.2555,23.6267 1.2143,254.4586 -0.05,277.29164 -6.9963,126.40542 -71.9351,199.6043 -188.229,212.17165 -13.6195,1.47186 -41.4612,2.00573 -55.1368,1.05742 z m 46.1481,-135.32442 c 11.7385,-3.23321 20.4063,-8.2131 28.5083,-16.37861 8.4628,-8.52934 13.2061,-16.69775 17.3201,-29.82706 5.5666,-17.76519 5.6071,-18.99345 5.6071,-170.11589 0,-92.15979 -0.3601,-142.04247 -1.0712,-148.42003 -4.5629,-40.92003 -22.9957,-63.89609 -56.3568,-70.24712 -8.9783,-1.70923 -27.9752,-1.70923 -36.9536,0 -33.361,6.35103 -51.7938,29.32709 -56.3568,70.24712 -1.4079,12.62683 -1.4509,281.8652 -0.046,295.32628 3.7046,35.52407 18.9365,58.51445 44.7047,67.47573 3.8206,1.3287 9.3642,2.84565 12.3192,3.37098 8.1569,1.4502 35.1823,0.53625 42.326,-1.4314 z m -1255.9236,-150.31376 0,-275.654 -76.9036,0 -76.9034,0 0,-66.41666 0,-66.41666 226.7155,0 226.7154,0 0,66.41666 0,66.41666 -76.9035,0 -76.9034,0 0,275.654 0,275.65398 -72.9085,0 -72.9085,0 0,-275.65398 z m 569.2854,-66.41665 0,-342.07067 73.4079,0 73.4079,0 0,275.65402 0,275.65403 120.3488,0 120.349,0 0,66.41665 0,66.4166 -193.7567,0 -193.7569,0 0,-342.07063 z m 1509.1059,-0.0378 0,-342.1086 132.5837,0.35543 c 116.3902,0.31196 133.8714,0.55428 143.1281,1.98368 18.7389,2.89357 31.0972,5.76957 46.0116,10.70785 67.3821,22.31032 107.9739,72.04704 122.6847,150.32386 5.2636,28.00685 5.294,28.88115 5.7559,164.7932 0.2948,86.77115 0.075,132.99325 -0.6916,146.31636 -3.8419,66.65945 -19.4997,111.18275 -52.4707,149.20123 -24.5025,28.2536 -66.0945,48.96902 -113.3577,56.45917 -23.9799,3.80035 -34.8723,4.07634 -160.8526,4.07634 l -122.7914,0 0,-342.10852 z m 252.4236,206.43761 c 29.9923,-7.73032 46.2189,-29.77796 50.1565,-68.14913 1.4454,-14.08521 1.4163,-264.28213 -0.033,-277.27299 -4.2507,-38.12172 -20.0415,-59.5906 -49.8649,-67.79518 -5.7316,-1.57673 -12.3109,-1.83086 -56.1794,-2.16953 l -49.6877,-0.38371 0,209.39929 0,209.39924 48.6889,-0.45336 c 45.5443,-0.42412 49.2204,-0.5904 56.9188,-2.57463 z M 1886.3689,152.89491 c -9.2232,-0.98978 -15.8895,-3.64194 -21.2348,-8.44772 -10.0816,-9.06433 -13.2089,-21.83574 -13.2121,-53.956928 0,-39.124498 5.2498,-52.328583 23.6781,-59.511077 4.6287,-1.804042 7.8567,-2.262969 16.2619,-2.311744 14.6489,-0.0851 20.8372,1.889422 27.5592,8.792992 6.092,6.25668 8.2492,11.796008 9.092,23.349055 l 0.6036,8.271655 -12.3852,-0.28167 -12.3854,-0.28167 -0.6314,-7.062982 c -1.069,-11.958348 -5.0718,-16.277288 -13.3547,-14.409188 -5.1491,1.161363 -8.2629,4.479817 -10.2647,10.939101 -1.4516,4.684618 -1.7145,9.854517 -1.7038,33.504276 0.012,25.72971 0.1764,28.40393 2.0616,33.45797 2.5448,6.82277 6.6958,9.98748 13.0999,9.98748 7.5689,0 11.275,-5.98507 11.287,-18.2271 l 0.011,-5.74276 12.6251,0 12.6251,0 -0.5392,8.23963 c -0.8718,13.32085 -5.7837,24.13413 -12.9618,28.53479 -7.2321,4.43387 -18.7104,6.39183 -30.226,5.15589 z M 52.850715,151.26135 c -0.373913,-0.37391 -0.679833,-27.80919 -0.679833,-60.967379 l 0,-60.287545 12.734084,0.279565 12.733994,0.279474 0.258884,50.164994 0.258883,50.165091 18.717331,0.27161 18.717242,0.27168 0,9.98749 0,9.98748 -31.030377,0.26364 c -17.066751,0.14505 -31.336295,-0.0421 -31.710208,-0.4161 z m 277.970445,0.22457 c 0,-0.95656 33.06713,-119.788559 33.55132,-120.571982 0.28816,-0.466339 7.9046,-0.847847 16.92527,-0.847847 16.17434,0 16.40925,0.03111 16.97058,2.247229 0.31305,1.235944 7.674,28.314427 16.35744,60.174438 8.68355,31.860012 15.60048,58.264342 15.37088,58.676412 -0.2296,0.41198 -5.99303,0.74902 -12.80775,0.74902 -10.79076,0 -12.50659,-0.22557 -13.29211,-1.74777 -0.49608,-0.96132 -2.17988,-7.03873 -3.74188,-13.50525 l -2.84003,-11.75748 -17.45513,0.27179 -17.45512,0.27188 -1.35967,5.49312 c -0.74783,3.02122 -2.28539,8.97627 -3.41683,13.23345 l -2.05716,7.74026 -12.37491,0 c -6.80619,0 -12.3749,-0.19226 -12.3749,-0.42727 z m 60.43122,-47.76229 c -0.29173,-1.23595 -2.99799,-12.77252 -6.01381,-25.636825 -3.01592,-12.864304 -5.63908,-23.545161 -5.82906,-23.735229 -0.19016,-0.190068 -2.68354,10.372925 -5.54088,23.473417 -2.85742,13.100403 -5.44992,24.792457 -5.76105,25.982367 -0.5573,2.1311 -0.38398,2.1635 11.55469,2.1635 12.06075,0 12.11785,-0.011 11.59011,-2.24723 z m 243.67505,47.17131 c -0.74847,-1.21095 -26.45474,-117.227078 -26.45474,-119.393961 0,-1.263305 1.96958,-1.451268 12.73152,-1.214988 l 12.73152,0.279474 7.647,41.160429 c 4.20574,22.6382 7.82143,41.684146 8.03482,42.324356 0.21341,0.64012 4.65498,-17.882022 9.87017,-41.16043 l 9.48225,-42.324355 15.00227,-0.274624 15.00218,-0.274715 8.89987,41.953645 c 4.89492,23.074523 9.19135,41.625029 9.54741,41.223299 0.53653,-0.60507 14.89804,-80.026504 14.89612,-82.377872 0,-0.411981 5.66607,-0.749107 12.59206,-0.749107 12.56012,0 12.59115,0.0091 12.0289,2.247229 -0.31004,1.235944 -6.21322,27.865018 -13.11824,59.17569 -6.90504,31.31077 -12.79778,57.71509 -13.09501,58.67641 -0.47942,1.55065 -2.04929,1.74777 -13.92098,1.74777 -11.74466,0 -13.48758,-0.21368 -14.2549,-1.74777 -0.48079,-0.96132 -4.87862,-20.73533 -9.77288,-43.94227 -4.89428,-23.206935 -9.12345,-42.194498 -9.39807,-42.194589 -0.27472,-1.83e-4 -4.95695,18.987288 -10.40514,42.194319 -5.44818,23.20712 -10.2954,42.98122 -10.77172,43.94254 -0.75771,1.52951 -2.47537,1.74777 -13.75553,1.74777 -7.67985,0 -13.14396,-0.41153 -13.51888,-1.01825 z m 313.11907,-59.976774 0,-60.995015 27.21587,0.329988 c 23.54233,0.28533 27.75503,0.571484 31.21083,2.119571 11.3771,5.0966 17.4513,17.627622 16.1287,33.27376 -1.0711,12.670394 -6.7727,21.008119 -16.6539,24.353203 l -5.1542,1.744835 5.2331,1.255344 c 6.4608,1.550009 12.2308,6.49653 14.3304,12.285408 0.9644,2.65939 1.886,11.08808 2.5322,23.15743 0.5586,10.4369 1.3031,19.98732 1.6546,21.22327 0.6373,2.24174 0.6092,2.24723 -11.4275,2.24723 -11.4818,0 -12.126,-0.10881 -13.29998,-2.24723 -0.76411,-1.3917 -1.47552,-8.90052 -1.86874,-19.72524 -0.65668,-18.07392 -1.38365,-21.32969 -5.61931,-25.16289 -2.2141,-2.00363 -9.15163,-3.74224 -15.06871,-3.77628 l -4.24472,-0.0247 0,25.46799 0,25.46808 -12.48429,0 -12.48435,0 0,-60.995021 z m 43.69237,-11.354927 c 7.46463,-6.281113 6.92774,-25.054448 -0.83137,-29.066828 -1.73321,-0.896256 -5.70451,-1.454105 -10.35206,-1.454105 l -7.5403,0 0,16.479344 0,16.479253 7.91339,0 c 6.93248,0 8.27248,-0.302077 10.81034,-2.437664 z m 263.60193,71.697381 c -0.3734,-0.37355 -0.6791,-27.7951 -0.6791,-60.936816 l 0,-60.257713 32.9587,0 32.9586,0 0,9.488107 0,9.488108 -19.975,0 -19.9748,0 0,14.981222 0,14.98113 18.4768,0 18.4768,0 0,8.988734 0,8.988733 -18.4768,0 -18.4768,0 0,17.977465 0,17.97747 21.0111,0 21.0113,0 -0.2873,9.23838 -0.2871,9.23837 -33.0287,0.26291 c -18.1657,0.14468 -33.3342,-0.043 -33.7077,-0.4161 z m 287.6257,-0.0137 c -0.3662,-0.36622 -0.6658,-27.78183 -0.6658,-60.923544 l 0,-60.257713 17.2376,0 17.2373,0 15.9709,41.582661 15.9709,41.582566 0.2606,-41.582566 0.2606,-41.582661 11.9818,0 11.9818,0 -0.2576,60.673904 -0.2573,60.673823 -16.4794,0 -16.4792,0 -16.6824,-44.44421 -16.6823,-44.444201 -0.046,44.693841 -0.046,44.69394 -11.3191,0 c -6.2256,0 -11.6188,-0.2996 -11.985,-0.66584 z m 617.2385,0.0137 c -0.3734,-0.37355 -0.6789,-27.7951 -0.6789,-60.936816 l 0,-60.257713 32.9585,0 32.9586,0 0,9.488107 0,9.488108 -19.9748,0 -19.975,0 0,14.981222 0,14.98113 18.4769,0 18.4768,0 0,8.988734 0,8.988733 -18.4768,0 -18.4769,0 0,17.977465 0,17.97747 21.0112,0 21.0112,0 -0.2873,9.23838 -0.287,9.23837 -33.0288,0.26291 c -18.1657,0.14468 -33.3341,-0.043 -33.7077,-0.4161 z m 316.4667,-0.27563 c -0.7556,-1.22239 -29.5067,-117.664594 -29.5067,-119.501947 0,-1.149924 2.4192,-1.416952 12.8386,-1.416952 l 12.8387,0 3.1605,14.73149 c 1.7383,8.10236 6.0032,27.98993 9.4775,44.194558 3.6969,17.242821 6.5704,28.634531 6.9278,27.465571 0.3358,-1.09868 4.4748,-18.17723 9.1973,-37.952426 4.7227,-19.775102 9.2915,-38.763763 10.1533,-42.197063 l 1.5664,-6.24213 12.3629,0 c 6.7995,0 12.3629,0.173779 12.3629,0.386084 0,0.41738 -30.6951,116.824255 -31.5671,119.713245 -0.4704,1.55898 -2.0778,1.74777 -14.883,1.74777 -7.8954,0 -14.6137,-0.41766 -14.9291,-0.9282 z m 304.7696,0.29156 c -0.3822,-0.38225 -0.695,-27.8244 -0.695,-60.982579 l 0,-60.287545 12.734,0.279565 12.7341,0.279474 0,60.424172 0,60.424173 -12.0389,0.27884 c -6.6216,0.15336 -12.3519,-0.0339 -12.7342,-0.4161 z m 287.6238,-0.0155 c -0.3739,-0.37392 -0.6798,-27.8092 -0.6798,-60.967382 l 0,-60.287546 12.7339,0.279566 12.7341,0.279473 0.2589,50.164995 0.2589,50.165094 18.7173,0.27169 18.7174,0.2716 0,9.98749 0,9.98748 -31.0304,0.26364 c -17.0668,0.14505 -31.3365,-0.0421 -31.7103,-0.4161 z m 301.6215,0 c -0.374,-0.37392 -0.6799,-27.8092 -0.6799,-60.967382 l 0,-60.287546 12.7341,0.279566 12.734,0.279473 0.2588,50.164995 0.259,50.165094 18.7173,0.27169 18.7172,0.2716 0,9.98749 0,9.98748 -31.0303,0.26364 c -17.0669,0.14505 -31.3364,-0.0421 -31.7102,-0.4161 z m 297.6256,0 c -0.3734,-0.37355 -0.6791,-27.79511 -0.6791,-60.936817 l 0,-60.257714 32.9587,0 32.9585,0 0,9.488108 0,9.488107 -19.9746,0 -19.9751,0 0,14.981222 0,14.981131 18.4768,0 18.4766,0 0,8.988733 0,8.988733 -18.4766,0 -18.4768,0 0,17.977467 0,17.97747 21.011,0 21.0113,0 -0.2873,9.23838 -0.2871,9.23837 -33.0286,0.26291 c -18.1657,0.14468 -33.3341,-0.043 -33.7077,-0.4161 z"
     id="path3388"
     inkscape:connector-curvature="0" />
</svg>
