<?xml version="1.0" standalone="no"?>
<!DOCTYPE svg PUBLIC "-//W3C//DTD SVG 20010904//EN"
 "http://www.w3.org/TR/2001/REC-SVG-20010904/DTD/svg10.dtd">
<svg version="1.0" xmlns="http://www.w3.org/2000/svg"
 width="800.000000pt" height="800.000000pt" viewBox="0 0 800.000000 800.000000"
 preserveAspectRatio="xMidYMid meet">
<metadata>
Created by potrace 1.11, written by Peter Selinger 2001-2013
</metadata>
<g transform="translate(0.000000,800.000000) scale(0.100000,-0.100000)"
fill="#000000" stroke="none">
<path d="M2357 7095 c-2 -5 -3 -1259 -3 -2785 l1 -2775 70 -2 c39 -1 118 -2
177 -2 l107 -1 3 -147 c3 -140 4 -148 23 -148 11 0 23 5 27 10 5 7 8 7 8 0 0
-11 549 -13 568 -2 6 4 13 4 16 -1 3 -5 27 -7 53 -5 26 2 54 4 61 3 15 -1 58
-1 75 0 6 1 21 -1 32 -3 11 -2 26 0 33 6 6 5 12 6 12 1 0 -5 35 -8 77 -6 90 2
86 2 138 -1 22 -2 43 2 47 8 5 7 8 7 8 -1 0 -6 23 -9 63 -7 81 5 79 5 102 0
11 -2 26 0 33 6 6 5 12 5 12 1 0 -8 35 -8 165 -3 6 0 19 -2 30 -4 11 -2 26 0
33 6 6 5 12 6 12 1 0 -13 173 -11 182 1 5 7 8 6 8 -1 0 -6 23 -9 63 -7 81 5
79 5 102 0 11 -2 26 0 33 6 6 5 12 5 12 1 0 -8 35 -8 165 -3 6 0 19 -2 30 -4
11 -2 26 0 33 6 6 5 12 6 12 1 0 -13 173 -11 182 1 5 7 8 6 8 -1 0 -6 23 -9
63 -7 81 5 79 5 102 0 11 -2 26 0 33 6 6 5 12 5 12 1 0 -8 35 -8 165 -3 6 0
19 -2 30 -4 11 -2 26 0 33 6 6 5 12 6 12 1 0 -13 173 -11 182 1 5 7 8 7 8 0 0
-12 40 -13 58 -1 9 5 10 12 3 20 -5 6 -7 17 -3 23 9 15 7 1016 -2 1031 -4 7
-16 8 -29 4 -30 -10 -129 -8 -146 2 -7 5 -16 5 -20 0 -7 -11 -132 -11 -149 0
-8 5 -12 50 -12 149 l0 142 -796 0 c-502 0 -798 4 -802 10 -3 5 -6 948 -6
2095 l-1 2085 -165 2 c-91 0 -172 1 -180 2 -13 1 -15 23 -13 148 l2 148 -594
0 c-388 0 -596 -3 -598 -10z"/>
</g>
</svg>
